<svg xmlns:xlink="http://www.w3.org/1999/xlink" xmlns:dc="http://purl.org/dc/elements/1.1/" xmlns:cc="http://creativecommons.org/ns#" xmlns:rdf="http://www.w3.org/1999/02/22-rdf-syntax-ns#" xmlns:svg="http://www.w3.org/2000/svg" xmlns="http://www.w3.org/2000/svg" viewBox="0 0 180 180" width="180"  height="180" ><metadata><rdf:RDF><cc:Work><dc:format>image/svg+xml</dc:format><dc:type rdf:resource="http://purl.org/dc/dcmitype/StillImage"/><dc:title>Bottts</dc:title><dc:creator><cc:Agent><dc:title>Pablo Stanley</dc:title></cc:Agent></dc:creator><dc:source>https://bottts.com/</dc:source><cc:license rdf:resource="https://bottts.com/"/><dc:contributor><cc:Agent><dc:title>Florian Körner</dc:title></cc:Agent></dc:contributor></cc:Work></rdf:RDF></metadata><mask id="avatarsRadiusMask"><rect width="180" height="180" rx="0" ry="0" x="0" y="0" fill="#fff"/></mask><g mask="url(#avatarsRadiusMask)"><g transform="translate(0, 66)"><g opacity="0.9"><path id="Cable" d="M38 12C35.046 23.6966 18.0959 18.6663 14.6313 30.009C11.1668 41.3518 22.6565 50 32.1552 50" stroke="#2A3544" stroke-width="6"/><path id="Cable_2" d="M150 55C158.394 58.4864 170.102 47.4063 166 38.5C161.898 29.5936 150 31.8056 150 19.195" stroke="#2A3544" stroke-width="4"/></g><path fill-rule="evenodd" clip-rule="evenodd" d="M138 6C136.895 6 136 6.89543 136 8V22C136 23.1046 136.895 24 138 24H157C158.105 24 159 23.1046 159 22V8C159 6.89543 158.105 6 157 6H138ZM21 37C21 35.8954 21.8954 35 23 35H35C36.1046 35 37 35.8954 37 37V55C37 56.1046 36.1046 57 35 57H23C21.8954 57 21 56.1046 21 55V37ZM136 44C136 42.8954 136.895 42 138 42H157C158.105 42 159 42.8954 159 44V62C159 63.1046 158.105 64 157 64H138C136.895 64 136 63.1046 136 62V44Z" fill="#273951"/><mask id="sidesCables01Mask0" mask-type="alpha" maskUnits="userSpaceOnUse" x="21" y="6" width="138" height="58"><path fill-rule="evenodd" clip-rule="evenodd" d="M138 6C136.895 6 136 6.89543 136 8V22C136 23.1046 136.895 24 138 24H157C158.105 24 159 23.1046 159 22V8C159 6.89543 158.105 6 157 6H138ZM21 37C21 35.8954 21.8954 35 23 35H35C36.1046 35 37 35.8954 37 37V55C37 56.1046 36.1046 57 35 57H23C21.8954 57 21 56.1046 21 55V37ZM136 44C136 42.8954 136.895 42 138 42H157C158.105 42 159 42.8954 159 44V62C159 63.1046 158.105 64 157 64H138C136.895 64 136 63.1046 136 62V44Z" fill="white"/></mask><g mask="url(#sidesCables01Mask0)"><rect width="180" height="76" fill="#EF5350"/></g></g><g transform="translate(41, 0)"><path fill-rule="evenodd" clip-rule="evenodd" d="M53.5683 39L55.5437 34.3851L49.3528 23.7098L52.2483 13.0836L49.3539 12.2949L46.1288 24.1305L52.179 34.5631L50.0881 39H38V52H62V39H53.5683Z" fill="#E6E6E6"/><mask id="topAntennaCrookedMask0" mask-type="alpha" maskUnits="userSpaceOnUse" x="38" y="12" width="24" height="40"><path fill-rule="evenodd" clip-rule="evenodd" d="M53.5683 39L55.5437 34.3851L49.3528 23.7098L52.2483 13.0836L49.3539 12.2949L46.1288 24.1305L52.179 34.5631L50.0881 39H38V52H62V39H53.5683Z" fill="white"/></mask><g mask="url(#topAntennaCrookedMask0)"><rect width="100" height="52" fill="#EF5350"/><rect x="38" y="39" width="24" height="13" fill="white" fill-opacity="0.2"/></g><path fill-rule="evenodd" clip-rule="evenodd" d="M50 16C54.4183 16 58 12.4183 58 8C58 3.58172 54.4183 0 50 0C45.5817 0 42 3.58172 42 8C42 12.4183 45.5817 16 50 16Z" fill="#FFE65C"/><path fill-rule="evenodd" clip-rule="evenodd" d="M53 8C54.6569 8 56 6.65685 56 5C56 3.34315 54.6569 2 53 2C51.3431 2 50 3.34315 50 5C50 6.65685 51.3431 8 53 8Z" fill="white"/></g><g transform="translate(25, 44)"><path fill-rule="evenodd" clip-rule="evenodd" d="M0 102V68.8517C0 64.3169 0.77112 59.8152 2.28039 55.5389L19.7614 12.0092C22.3014 4.81263 29.1036 0 36.7353 0L93.2647 0C100.896 0 107.699 4.81263 110.239 12.0092L127.72 55.5389C129.229 59.8152 130 64.3169 130 68.8517V102C130 111.941 121.941 120 112 120H18C8.05887 120 0 111.941 0 102Z" fill="#0076DE"/><mask id="faceSquareMask0" mask-type="alpha" maskUnits="userSpaceOnUse" x="0" y="0" width="130" height="120"><path fill-rule="evenodd" clip-rule="evenodd" d="M0 102V68.8517C0 64.3169 0.77112 59.8152 2.28039 55.5389L19.7614 12.0092C22.3014 4.81263 29.1036 0 36.7353 0L93.2647 0C100.896 0 107.699 4.81263 110.239 12.0092L127.72 55.5389C129.229 59.8152 130 64.3169 130 68.8517V102C130 111.941 121.941 120 112 120H18C8.05887 120 0 111.941 0 102Z" fill="white"/></mask><g mask="url(#faceSquareMask0)"><rect x="-2" y="-2" width="134" height="124" fill="#E53935"/><path fill-rule="evenodd" clip-rule="evenodd" d="M120 130.649C116.812 113.308 110.453 128.073 95.1523 125.017C88.3923 123.666 93.8542 117.769 88.8124 115.213C84.5536 113.054 78.7499 114.793 73.8715 113.397C66.8312 111.382 66.9237 107.282 60.3639 106.669C54.1604 106.09 47.6616 107.999 41.4049 107.282C29.5967 105.928 34.4383 88.0585 25.5835 84.9025C16.7287 81.7465 2.15043 87.1967 0.242157 96.1317C-1.61816 104.842 10.8129 137.252 10.8129 137.252H120" fill="black" fill-opacity="0.2"/><path fill-rule="evenodd" clip-rule="evenodd" d="M156 122.767C104.757 122.767 99.4219 96.9746 74.2092 85.1582C48.9964 73.3418 26.9059 103.905 18.4298 74.2122C9.9537 44.5195 10.0005 137.072 10.0005 137.072H156V122.767Z" fill="black" fill-opacity="0.1"/><path fill-rule="evenodd" clip-rule="evenodd" d="M161.575 9.17587C149.64 8.20079 156.546 19.9843 151.83 19.9843C144.863 19.9843 149.727 12.0062 141.247 12.2048C139.028 12.2568 136.303 14.1443 136.135 16.709C135.773 22.2193 139.852 31.7253 134.297 31.9953C129.117 32.247 133.193 22.3562 132.652 15.7593C132.343 11.9871 128.47 9.00745 125.684 9.00745C118.113 9.00745 123.998 24.7147 118.549 24.7147C113.1 24.7147 117.341 15.6639 113.467 10.8715C108.964 5.29973 94.1677 2.55906 104.718 0H161.867" fill="black" fill-opacity="0.4"/></g></g><g transform="translate(52, 124)"><rect x="12" y="12" width="4" height="8" rx="2" fill="black" fill-opacity="0.6"/><rect x="36" y="12" width="4" height="8" rx="2" fill="black" fill-opacity="0.6"/><rect x="24" y="12" width="4" height="8" rx="2" fill="black" fill-opacity="0.6"/><rect x="48" y="12" width="4" height="8" rx="2" fill="black" fill-opacity="0.6"/><rect x="60" y="12" width="4" height="8" rx="2" fill="black" fill-opacity="0.6"/></g><g transform="translate(38, 76)"><path fill-rule="evenodd" clip-rule="evenodd" d="M28 42C37.9411 42 46 33.9411 46 24C46 14.0589 37.9411 6 28 6C18.0589 6 10 14.0589 10 24C10 33.9411 18.0589 42 28 42Z" fill="black" fill-opacity="0.2"/><path fill-rule="evenodd" clip-rule="evenodd" d="M74 42C83.9411 42 92 33.9411 92 24C92 14.0589 83.9411 6 74 6C64.0589 6 56 14.0589 56 24C56 33.9411 64.0589 42 74 42Z" fill="black" fill-opacity="0.2"/><path fill-rule="evenodd" clip-rule="evenodd" d="M28 39C36.2843 39 43 32.2843 43 24C43 15.7157 36.2843 9 28 9C19.7157 9 13 15.7157 13 24C13 32.2843 19.7157 39 28 39Z" fill="#F1EEDA"/><path fill-rule="evenodd" clip-rule="evenodd" d="M74 39C82.2843 39 89 32.2843 89 24C89 15.7157 82.2843 9 74 9C65.7157 9 59 15.7157 59 24C59 32.2843 65.7157 39 74 39Z" fill="#F1EEDA"/><rect x="26" y="15" width="10" height="10" rx="2" fill="black" fill-opacity="0.8"/><rect x="74" y="15" width="10" height="10" rx="2" fill="black" fill-opacity="0.8"/></g></g></svg>