<svg xmlns:xlink="http://www.w3.org/1999/xlink" xmlns:dc="http://purl.org/dc/elements/1.1/" xmlns:cc="http://creativecommons.org/ns#" xmlns:rdf="http://www.w3.org/1999/02/22-rdf-syntax-ns#" xmlns:svg="http://www.w3.org/2000/svg" xmlns="http://www.w3.org/2000/svg" viewBox="0 0 180 180" width="180"  height="180" ><metadata><rdf:RDF><cc:Work><dc:format>image/svg+xml</dc:format><dc:type rdf:resource="http://purl.org/dc/dcmitype/StillImage"/><dc:title>Bottts</dc:title><dc:creator><cc:Agent><dc:title>Pablo Stanley</dc:title></cc:Agent></dc:creator><dc:source>https://bottts.com/</dc:source><cc:license rdf:resource="https://bottts.com/"/><dc:contributor><cc:Agent><dc:title>Florian Körner</dc:title></cc:Agent></dc:contributor></cc:Work></rdf:RDF></metadata><mask id="avatarsRadiusMask"><rect width="180" height="180" rx="0" ry="0" x="0" y="0" fill="#fff"/></mask><g mask="url(#avatarsRadiusMask)"><g transform="translate(0, 66)"><path fill-rule="evenodd" clip-rule="evenodd" d="M134.436 10.184C134 11.0397 134 12.1598 134 14.4V61.6C134 63.8402 134 64.9603 134.436 65.816C134.819 66.5686 135.431 67.1805 136.184 67.564C137.04 68 138.16 68 140.4 68H163.6C165.84 68 166.96 68 167.816 67.564C168.569 67.1805 169.181 66.5686 169.564 65.816C170 64.9603 170 63.8402 170 61.6V52.9944C171.35 52.9761 172.161 52.8979 172.816 52.564C173.569 52.1805 174.181 51.5686 174.564 50.816C175 49.9603 175 48.8402 175 46.6V29.4C175 27.1598 175 26.0397 174.564 25.184C174.181 24.4314 173.569 23.8195 172.816 23.436C172.161 23.1021 171.35 23.0239 170 23.0056V14.4C170 12.1598 170 11.0397 169.564 10.184C169.181 9.43139 168.569 8.81947 167.816 8.43597C166.96 8 165.84 8 163.6 8H140.4C138.16 8 137.04 8 136.184 8.43597C135.431 8.81947 134.819 9.43139 134.436 10.184ZM20.436 17.184C20 18.0397 20 19.1598 20 21.4V31H16.4C14.1598 31 13.0397 31 12.184 31.436C11.4314 31.8195 10.8195 32.4314 10.436 33.184C10 34.0397 10 35.1598 10 37.4V54.6C10 56.8402 10 57.9603 10.436 58.816C10.8195 59.5686 11.4314 60.1805 12.184 60.564C13.0397 61 14.1598 61 16.4 61H39.6C41.8402 61 42.9603 61 43.816 60.564C44.5686 60.1805 45.1805 59.5686 45.564 58.816C46 57.9603 46 56.8402 46 54.6V38.6V37.4V21.4C46 19.1598 46 18.0397 45.564 17.184C45.1805 16.4314 44.5686 15.8195 43.816 15.436C42.9603 15 41.8402 15 39.6 15H26.4C24.1598 15 23.0397 15 22.184 15.436C21.4314 15.8195 20.8195 16.4314 20.436 17.184Z" fill="#0076DE"/><mask id="sidesSquareAssymetricMask0" mask-type="alpha" maskUnits="userSpaceOnUse" x="10" y="8" width="165" height="60"><path fill-rule="evenodd" clip-rule="evenodd" d="M134.436 10.184C134 11.0397 134 12.1598 134 14.4V61.6C134 63.8402 134 64.9603 134.436 65.816C134.819 66.5686 135.431 67.1805 136.184 67.564C137.04 68 138.16 68 140.4 68H163.6C165.84 68 166.96 68 167.816 67.564C168.569 67.1805 169.181 66.5686 169.564 65.816C170 64.9603 170 63.8402 170 61.6V52.9944C171.35 52.9761 172.161 52.8979 172.816 52.564C173.569 52.1805 174.181 51.5686 174.564 50.816C175 49.9603 175 48.8402 175 46.6V29.4C175 27.1598 175 26.0397 174.564 25.184C174.181 24.4314 173.569 23.8195 172.816 23.436C172.161 23.1021 171.35 23.0239 170 23.0056V14.4C170 12.1598 170 11.0397 169.564 10.184C169.181 9.43139 168.569 8.81947 167.816 8.43597C166.96 8 165.84 8 163.6 8H140.4C138.16 8 137.04 8 136.184 8.43597C135.431 8.81947 134.819 9.43139 134.436 10.184ZM20.436 17.184C20 18.0397 20 19.1598 20 21.4V31H16.4C14.1598 31 13.0397 31 12.184 31.436C11.4314 31.8195 10.8195 32.4314 10.436 33.184C10 34.0397 10 35.1598 10 37.4V54.6C10 56.8402 10 57.9603 10.436 58.816C10.8195 59.5686 11.4314 60.1805 12.184 60.564C13.0397 61 14.1598 61 16.4 61H39.6C41.8402 61 42.9603 61 43.816 60.564C44.5686 60.1805 45.1805 59.5686 45.564 58.816C46 57.9603 46 56.8402 46 54.6V38.6V37.4V21.4C46 19.1598 46 18.0397 45.564 17.184C45.1805 16.4314 44.5686 15.8195 43.816 15.436C42.9603 15 41.8402 15 39.6 15H26.4C24.1598 15 23.0397 15 22.184 15.436C21.4314 15.8195 20.8195 16.4314 20.436 17.184Z" fill="white"/></mask><g mask="url(#sidesSquareAssymetricMask0)"><rect width="180" height="76" fill="#78909C"/><rect y="47" width="180" height="29" fill="black" fill-opacity="0.1"/><path fill-rule="evenodd" clip-rule="evenodd" d="M161 25C163.761 25 166 22.7614 166 20C166 17.2386 163.761 15 161 15C158.239 15 156 17.2386 156 20C156 22.7614 158.239 25 161 25Z" fill="white" fill-opacity="0.6"/><path fill-rule="evenodd" clip-rule="evenodd" d="M161 41C163.761 41 166 38.7614 166 36C166 33.2386 163.761 31 161 31C158.239 31 156 33.2386 156 36C156 38.7614 158.239 41 161 41Z" fill="white" fill-opacity="0.6"/></g></g><g transform="translate(41, 0)"><path fill-rule="evenodd" clip-rule="evenodd" d="M48 0C39.1634 0 32 7.16344 32 16V32C32 36.4183 35.5817 40 40 40H23C22.4477 40 22 40.4477 22 41V51C22 51.5523 22.4477 52 23 52H77C77.5523 52 78 51.5523 78 51V41C78 40.4477 77.5523 40 77 40H60C64.4183 40 68 36.4183 68 32V16C68 7.16344 60.8366 0 52 0H48Z" fill="#59C4FF"/><mask id="topBulb011Mask0" mask-type="alpha" maskUnits="userSpaceOnUse" x="22" y="0" width="56" height="52"><path fill-rule="evenodd" clip-rule="evenodd" d="M48 0C39.1634 0 32 7.16344 32 16V32C32 36.4183 35.5817 40 40 40H23C22.4477 40 22 40.4477 22 41V51C22 51.5523 22.4477 52 23 52H77C77.5523 52 78 51.5523 78 51V41C78 40.4477 77.5523 40 77 40H60C64.4183 40 68 36.4183 68 32V16C68 7.16344 60.8366 0 52 0H48Z" fill="white"/></mask><g mask="url(#topBulb011Mask0)"><rect width="100" height="52" fill="#78909C"/><rect x="20" y="-3" width="60" height="43" fill="white" fill-opacity="0.4"/><path d="M49 3.5C53.9315 3.5 58.366 5.62814 61.4352 9.01616" stroke="white" stroke-width="2" stroke-linecap="round"/><path fill-rule="evenodd" clip-rule="evenodd" d="M49.8284 26L40.8284 17L38 19.8284L48 29.8284V40H52V29.9706L62.1421 19.8284L59.3137 17L50.3137 26H49.8284Z" fill="white" fill-opacity="0.8"/></g></g><g transform="translate(25, 44)"><path d="M0 12C0 5.37259 5.37258 0 12 0H118C124.627 0 130 5.37258 130 12V82C130 102.987 112.987 120 92 120H38C17.0132 120 0 102.987 0 82V12Z" fill="#0076DE"/><mask id="faceSquare01Mask0" mask-type="alpha" maskUnits="userSpaceOnUse" x="0" y="0" width="130" height="120"><path d="M0 12C0 5.37259 5.37258 0 12 0H118C124.627 0 130 5.37258 130 12V82C130 102.987 112.987 120 92 120H38C17.0132 120 0 102.987 0 82V12Z" fill="white"/></mask><g mask="url(#faceSquare01Mask0)"><rect x="-2" y="-2" width="134" height="124" fill="#546E7A"/> undefined </g></g><g transform="translate(52, 124)"><path d="M27.0493 8.44151C26.8055 7.36419 27.4811 6.29318 28.5584 6.04935C29.6358 5.80551 30.7068 6.48119 30.9506 7.55851C31.72 10.9578 34.4016 13 37.9999 13C41.5983 13 44.2799 10.9578 45.0493 7.55851C45.2931 6.48119 46.3641 5.80551 47.4414 6.04935C48.5188 6.29318 49.1944 7.36419 48.9506 8.44151C47.7599 13.7024 43.4298 17 37.9999 17C32.5701 17 28.24 13.7024 27.0493 8.44151Z" fill="black" fill-opacity="0.6"/></g><g transform="translate(38, 76)"><rect y="12" width="104" height="32" rx="16" fill="black" fill-opacity="0.8"/><rect x="24" y="22" width="10" height="12" rx="2" fill="#F4F4F4"/><rect x="70" y="22" width="10" height="12" rx="2" fill="#F4F4F4"/></g></g></svg>